# xmcd
#
# Track frame offsets:
#	150
#	922
#	24720
#	41580
#	73735
#	98333
#	128400
#	161672
#	190024
#	220147
#	253897
#	273877
#	298532
#
# Disc length: 3984 seconds
#
# Revision: 3
# Processed by: cddbd v1.5.2PL0 Copyright (c) Steve Scherf et al.
# Submitted via: audiograbber 1.83.01
#
DISCID=a90f8e0d
DTITLE=Ingrid Noll - Selige Witwen CD 3
DYEAR=2002
DGENRE=Hörbuch
TTITLE0=33
TTITLE1=34
TTITLE2=35
TTITLE3=36
TTITLE4=37
TTITLE5=38
TTITLE6=39
TTITLE7=40
TTITLE8=41
TTITLE9=42
TTITLE10=43
TTITLE11=44
TTITLE12=45
EXTD=
EXTT0=
EXTT1=
EXTT2=
EXTT3=
EXTT4=
EXTT5=
EXTT6=
EXTT7=
EXTT8=
EXTT9=
EXTT10=
EXTT11=
EXTT12=
PLAYORDER=
